%TF.GenerationSoftware,KiCad,Pcbnew,7.0.9*%
%TF.CreationDate,2024-10-16T11:28:13-03:00*%
%TF.ProjectId,EME,454d452e-6b69-4636-9164-5f7063625858,1.0*%
%TF.SameCoordinates,Original*%
%TF.FileFunction,Profile,NP*%
%FSLAX46Y46*%
G04 Gerber Fmt 4.6, Leading zero omitted, Abs format (unit mm)*
G04 Created by KiCad (PCBNEW 7.0.9) date 2024-10-16 11:28:13*
%MOMM*%
%LPD*%
G01*
G04 APERTURE LIST*
%TA.AperFunction,Profile*%
%ADD10C,0.200000*%
%TD*%
G04 APERTURE END LIST*
D10*
X15045538Y-15097786D02*
X17245538Y-15097786D01*
X18045538Y-15097786D02*
X20245538Y-15097786D01*
X21045538Y-15097786D02*
X23245538Y-15097786D01*
X24045538Y-15097786D02*
X26245538Y-15097786D01*
X27045538Y-15097786D02*
X29245538Y-15097786D01*
X30045538Y-15097786D02*
X32245538Y-15097786D01*
X33045538Y-15097786D02*
X35245538Y-15097786D01*
X36045538Y-15097786D02*
X38245538Y-15097786D01*
X39045538Y-15097786D02*
X41245538Y-15097786D01*
X42045538Y-15097786D02*
X44245538Y-15097786D01*
X45045538Y-15097786D02*
X47245538Y-15097786D01*
X48045538Y-15097786D02*
X50245538Y-15097786D01*
X51045538Y-15097786D02*
X53245538Y-15097786D01*
X54045538Y-15097786D02*
X56245538Y-15097786D01*
X57045538Y-15097786D02*
X59245538Y-15097786D01*
X60045538Y-15097786D02*
X62245538Y-15097786D01*
X63045538Y-15097786D02*
X65245538Y-15097786D01*
X66045538Y-15097786D02*
X68245538Y-15097786D01*
X69045538Y-15097786D02*
X71245538Y-15097786D01*
X72045538Y-15097786D02*
X74245538Y-15097786D01*
X75045538Y-15097786D02*
X77245538Y-15097786D01*
X78045538Y-15097786D02*
X80245538Y-15097786D01*
X81045538Y-15097786D02*
X83245538Y-15097786D01*
X84045538Y-15097786D02*
X86245538Y-15097786D01*
X87045538Y-15097786D02*
X89245538Y-15097786D01*
X90045538Y-15097786D02*
X92245538Y-15097786D01*
X93045538Y-15097786D02*
X95245538Y-15097786D01*
X96045538Y-15097786D02*
X98245538Y-15097786D01*
X99045538Y-15097786D02*
X101245538Y-15097786D01*
X102045538Y-15097786D02*
X104245538Y-15097786D01*
X105045538Y-15097786D02*
X107245538Y-15097786D01*
X108045538Y-15097786D02*
X110245538Y-15097786D01*
X111045538Y-15097786D02*
X113245538Y-15097786D01*
X114045538Y-15097786D02*
X115045538Y-15097786D01*
X115045538Y-15097786D02*
X115045538Y-17297786D01*
X115045538Y-18097786D02*
X115045538Y-20297786D01*
X115045538Y-21097786D02*
X115045538Y-23297786D01*
X115045538Y-24097786D02*
X115045538Y-26297786D01*
X115045538Y-27097786D02*
X115045538Y-29297786D01*
X115045538Y-30097786D02*
X115045538Y-32297786D01*
X115045538Y-33097786D02*
X115045538Y-35297786D01*
X115045538Y-36097786D02*
X115045538Y-38297786D01*
X115045538Y-39097786D02*
X115045538Y-41297786D01*
X115045538Y-42097786D02*
X115045538Y-44297786D01*
X115045538Y-45097786D02*
X115045538Y-47297786D01*
X115045538Y-48097786D02*
X115045538Y-50297786D01*
X115045538Y-51097786D02*
X115045538Y-53297786D01*
X115045538Y-54097786D02*
X115045538Y-56297786D01*
X115045538Y-57097786D02*
X115045538Y-59297786D01*
X115045538Y-60097786D02*
X115045538Y-62297786D01*
X115045538Y-63097786D02*
X115045538Y-65297786D01*
X115045538Y-66097786D02*
X115045538Y-68297786D01*
X115045538Y-69097786D02*
X115045538Y-71297786D01*
X115045538Y-72097786D02*
X115045538Y-74297786D01*
X115045538Y-75097786D02*
X115045538Y-77297786D01*
X115045538Y-78097786D02*
X115045538Y-80297786D01*
X115045538Y-81097786D02*
X115045538Y-83297786D01*
X115045538Y-84097786D02*
X115045538Y-86297786D01*
X115045538Y-87097786D02*
X115045538Y-89297786D01*
X115045538Y-90097786D02*
X115045538Y-92297786D01*
X115045538Y-93097786D02*
X115045538Y-93127786D01*
X115045538Y-93127786D02*
X112845538Y-93127786D01*
X112045538Y-93127786D02*
X109845538Y-93127786D01*
X109045538Y-93127786D02*
X106845538Y-93127786D01*
X106045538Y-93127786D02*
X103845538Y-93127786D01*
X103045538Y-93127786D02*
X100845538Y-93127786D01*
X100045538Y-93127786D02*
X97845538Y-93127786D01*
X97045538Y-93127786D02*
X94845538Y-93127786D01*
X94045538Y-93127786D02*
X91845538Y-93127786D01*
X91045538Y-93127786D02*
X88845538Y-93127786D01*
X88045538Y-93127786D02*
X85845538Y-93127786D01*
X85045538Y-93127786D02*
X82845538Y-93127786D01*
X82045538Y-93127786D02*
X79845538Y-93127786D01*
X79045538Y-93127786D02*
X76845538Y-93127786D01*
X76045538Y-93127786D02*
X73845538Y-93127786D01*
X73045538Y-93127786D02*
X70845538Y-93127786D01*
X70045538Y-93127786D02*
X67845538Y-93127786D01*
X67045538Y-93127786D02*
X64845538Y-93127786D01*
X64045538Y-93127786D02*
X61845538Y-93127786D01*
X61045538Y-93127786D02*
X58845538Y-93127786D01*
X58045538Y-93127786D02*
X55845538Y-93127786D01*
X55045538Y-93127786D02*
X52845538Y-93127786D01*
X52045538Y-93127786D02*
X49845538Y-93127786D01*
X49045538Y-93127786D02*
X46845538Y-93127786D01*
X46045538Y-93127786D02*
X43845538Y-93127786D01*
X43045538Y-93127786D02*
X40845538Y-93127786D01*
X40045538Y-93127786D02*
X37845538Y-93127786D01*
X37045538Y-93127786D02*
X34845538Y-93127786D01*
X34045538Y-93127786D02*
X31845538Y-93127786D01*
X31045538Y-93127786D02*
X28845538Y-93127786D01*
X28045538Y-93127786D02*
X25845538Y-93127786D01*
X25045538Y-93127786D02*
X22845538Y-93127786D01*
X22045538Y-93127786D02*
X19845538Y-93127786D01*
X19045538Y-93127786D02*
X16845538Y-93127786D01*
X16045538Y-93127786D02*
X15045538Y-93127786D01*
X15045538Y-93127786D02*
X15045538Y-90927786D01*
X15045538Y-90127786D02*
X15045538Y-87927786D01*
X15045538Y-87127786D02*
X15045538Y-84927786D01*
X15045538Y-84127786D02*
X15045538Y-81927786D01*
X15045538Y-81127786D02*
X15045538Y-78927786D01*
X15045538Y-78127786D02*
X15045538Y-75927786D01*
X15045538Y-75127786D02*
X15045538Y-72927786D01*
X15045538Y-72127786D02*
X15045538Y-69927786D01*
X15045538Y-69127786D02*
X15045538Y-66927786D01*
X15045538Y-66127786D02*
X15045538Y-63927786D01*
X15045538Y-63127786D02*
X15045538Y-60927786D01*
X15045538Y-60127786D02*
X15045538Y-57927786D01*
X15045538Y-57127786D02*
X15045538Y-54927786D01*
X15045538Y-54127786D02*
X15045538Y-51927786D01*
X15045538Y-51127786D02*
X15045538Y-48927786D01*
X15045538Y-48127786D02*
X15045538Y-45927786D01*
X15045538Y-45127786D02*
X15045538Y-42927786D01*
X15045538Y-42127786D02*
X15045538Y-39927786D01*
X15045538Y-39127786D02*
X15045538Y-36927786D01*
X15045538Y-36127786D02*
X15045538Y-33927786D01*
X15045538Y-33127786D02*
X15045538Y-30927786D01*
X15045538Y-30127786D02*
X15045538Y-27927786D01*
X15045538Y-27127786D02*
X15045538Y-24927786D01*
X15045538Y-24127786D02*
X15045538Y-21927786D01*
X15045538Y-21127786D02*
X15045538Y-18927786D01*
X15045538Y-18127786D02*
X15045538Y-15927786D01*
X15045538Y-15127786D02*
X15045538Y-15097786D01*
M02*
